<svg version="1" xmlns="http://www.w3.org/2000/svg" width="450.667" height="450.667" viewBox="0 0 338.000000 338.000000"><path d="M1 46.8v46.9l4 1.2c2.2.6 3.9 1.5 3.9 1.9-.4 2.7.8 4.7 5.6 9.8 3.1 3.1 6.5 7 7.7 8.7 2.6 3.7 7.3 5.7 10.8 4.7 1.8-.5 4.5.1 9.5 2.1 4.4 1.7 8.9 2.8 12.1 2.8 6.2.1 34.4-2.8 35.7-3.6 2.3-1.4-1-19.3-3.5-19.3-.5 0-2.1-1.2-3.5-2.6-2.3-2.3-3.1-2.5-7.2-1.9-2.5.4-5.5 1.5-6.6 2.5-1.9 1.8-3.9 2-10.8 1.1-2-.3.7-2 4.8-3 2.5-.6 4.5-1.5 4.5-2s1.5-1.3 3.3-1.7c1.7-.4 2.6-.9 2-1.1-1.9-.7-1.5-3.3.5-3.4 1.3 0 1.2-.2-.5-.9S71 87.3 71 84.8c0-3.3-1.5-6.2-5.2-10.2-1-1.1-1.8-2.3-1.8-2.7 0-1.3 2.7-2.9 3.6-2.1.4.4.2-.2-.6-1.2-1.3-1.7-1.3-1.8-.1-1.1 1.1.6 1.3.4.6-1.1-1.7-4.2.4-10.7 2.5-7.4.5.8 1 2.3 1 3.2 0 .9 1.6 3.3 3.5 5.4 1.9 2 3.5 4 3.5 4.5 0 .4 1.2 1.7 2.6 2.8 1.7 1.3 3 3.8 3.8 6.9.9 3.9 2.1 5.7 5.9 9.1 7 6 10.5 5.6 9.8-1.3-.1-1.9-.1-1.9 1.9-.1 1.1 1 2 2.6 2 3.6 0 2.4 1.4 3.1 4.4 2.3 3.2-.8 3.8-2.5 2-5.9-1.6-3.1-1.9-7.5-.5-7.5 1.9 0 2.4-4.2.7-5.2-1.1-.6-1.6-2.3-1.6-5.5v-4.6l-4.7.7c-6.5.9-8.8 2.7-10.2 8-1.1 4.4-4.3 8.8-6.9 9.4-1.8.3.2-3.4 2.3-4.2 1.6-.6 2.1-3.6.6-3.6-1.4 0-.2-3.6 2-5.9 1-1.1 1.9-2.7 1.9-3.6 0-1.7-2.5-2.1-3.3-.5-.3.6-.4.5-.3-.2.1-.7 3.1-2.3 6.6-3.5l6.3-2.3 4.5 2c2.4 1.1 5.6 2 6.9 2 2 0 2.3.4 1.8 2.2-.6 1.7-.4 2 .9 1.5 1-.4 1.6-.1 1.6.8 0 .8.4 1.5.9 1.5 1.2 0 .8 1.8-1.3 5.8-.9 1.8-2 5.6-2.3 8.4-.6 4.8-.5 5.1 1.3 4.4 1-.4 3.3-1 5-1.3 2.9-.5 3.2-.9 3.2-4.4 0-2.1.6-4.7 1.2-5.6.8-1.4 1-.8.8 3.2-.3 4.7-.1 5 2.2 5.3 2 .2 2.2.1 1-.8-1.3-.9-1.2-1.1.5-.8 1.6.3 2.7-1 5.2-6.2 1.8-3.6 3.3-7 3.3-7.7 0-.7.9-1.7 2-2.3 1.6-.9 2-.8 2 .5 0 .8-.5 1.4-1.1 1.2-.6-.1-1.7 2.3-2.5 5.3s-1.9 5.9-2.4 6.4c-1.5 1.5-1.2 4.7.3 4.4.7-.2 1.3.1 1.4.6.3 1.7 6.3 3.5 11.3 3.4 3.6-.1 4.7-.4 3.5-1-.8-.5-1.3-1.4-.9-1.9.8-1.3 6.4-.1 8.9 2 4.7 3.8 9.5 5.3 9.5 3 0-.6.7-.9 1.5-.6.8.4 2.2-.4 3.3-1.7 1.9-2.5 7.4-4.2 9.4-3 .8.5.6.9-.8 1.4-1.4.5-.6.9 2.9 1.4 5.5.8 10.4-.8 11.3-3.8.6-2 .7-2 2.1 0 1.5 1.8 1.5 1.8 1-.6-.3-1.4-1.7-5.7-3.1-9.5-1.4-3.9-2.6-7.1-2.6-7.3 0-.1.9.3 2 1s2 1.9 2 2.8c0 .8 1 4.1 2.3 7.3 1.9 5 2.5 5.8 4.4 5.4 1.2-.2 2 0 1.7.4-.3.5.2.9 1.1.9 1.1 0 1.5-.5 1.1-1.6-.3-.8-.2-1.3.3-1 1.1.7.2-3.4-1-5-1.3-1.6.2-2.6 1.8-1.3.7.6 1.3 3.1 1.3 5.4 0 4.2.1 4.3 4.2 5.3 2.6.7 4.7.7 5.2.2.5-.5.1-3.5-1.2-7.5-4-12-3-14.5 7.3-18.1 6.3-2.2 7-2.3 9.8-.9 1.7.8 4 1.5 5.2 1.5 2.5 0 6.3 2.5 5.3 3.5-.3.4-1.6.2-2.7-.5-2.8-1.4-2.6-.3.4 4.2 1.4 2 2.5 4.5 2.5 5.5 0 1.5-.2 1.6-1 .3-.6-.9-1-1-1-.3s1.4 2.8 3 4.7c3.2 3.5 2.2 4.3-1.8 1.4-1.4-1-2.8-3.6-3.7-6.8-.8-2.9-1.8-5.6-2.2-6-1.4-1.2-7.5-3-10.3-3-2.4 0-2.7.4-2.8 4-.1 2.2-.9 5.1-1.7 6.3-1.3 2.1-1.3 2.5.1 4.5 1.3 1.8 1.4 2.9.5 5.4-1.7 4.9-1.4 7.5 1.2 8.2 3.4.9 3.6.8 5.4-3.1 2.4-4.9 4-5.3 3.5-.8-.4 3.3-.3 3.5 2.6 3.5 1.7 0 3.2-.3 3.4-.8.2-.4 2-2 4.1-3.5 4.1-3.1 6.7-7.3 6.7-11.1 0-1.5 1.6-4.1 4.3-6.9 6.5-6.8 8.6-9.7 9.3-12.4.9-3.3 2.4-1.6 2.9 3.2.2 2.7 0 3.4-.6 2.4-.7-.9-.7-.5-.3 1.5.5 2.2.4 2.7-.6 2.1-.9-.6-1.1-.4-.5.5.6 1 1.1.9 2.2-.5 1.1-1.6 1.3-1.6 1.3-.3 0 .9.5 1.8 1 2 .6.2.2 1.2-.8 2.4-2.8 2.9-4.5 6.4-5.1 10.4-.4 2.2-1.4 3.9-2.9 4.6-1.9.9-2 1.3-.8 1.7 2.1.8 2 2.7-.1 2.8-1 .1-.1.6 2 1.1 2 .6 3.7 1.5 3.7 2 0 .6.7.7 1.6.4 1.1-.4 1.5-.2 1.1.6-.3.9.8 1.4 3.6 1.6 6.1.4 6.7 2.3.8 2.6-1.6.1-3.3.5-3.7.9-.4.4-1.9-.4-3.4-1.8-2.7-2.6-11.6-4.6-12.8-2.9-.4.6-2.2 2-3.9 3.2-2.3 1.7-3.7 3.8-4.8 7.4-2 7-2 12.4.2 13.2 2 .8 17.1 2.4 30.3 3.3 9.2.5 9.9.4 16.7-2.6 7.7-3.4 9-3.6 9.5-2.1.2.6 1.6.8 3.5.4 2.4-.5 5.2-2.8 10.5-8.7 4-4.4 8-8.8 9-9.8.9-.9 1.8-2.5 2-3.6.1-1 1.8-2.4 3.6-3.2l3.2-1.5V0H1v46.8zm89.4 23.8c.3.8.2 1.2-.4.9-.6-.3-1-1-1-1.6 0-1.4.7-1.1 1.4.7zm101.3 6.8c.5 5.1-.7 6-2.6 2-.9-2-.9-3 0-4 .6-.8.8-2.2.5-3.1-.6-1.4-.4-1.5.4-.7.7.7 1.4 3.3 1.7 5.8zM150.1 76c.5 0 .9-.5.9-1 0-.6.6-1 1.4-1 1.1 0 .8 1.1-1.1 4-2.9 4.4-4.9 5.3-3.9 1.7.3-1.2.6-3.6.7-5.2.1-2.4.3-2.5.6-.8.2 1.3.9 2.3 1.4 2.3zm104.9-.9c0 .6-.4.7-1 .4-.5-.3-1-1.1-1-1.6 0-.6.5-.7 1-.4.6.3 1 1.1 1 1.6zm-95 1.4c-.7.8-1.6 1.2-2.1.9-1.3-.8-.1-2.4 1.8-2.4 1.3 0 1.3.3.3 1.5zm23 .1c0 .2-.9.4-2 .4s-2-.4-2-.9.9-.7 2-.4c1.1.3 2 .7 2 .9zM57.8 85.7c2.3 2 2.4 2.3.8 2.3-2.7 0-4.6-2.9-4.4-7 .1-3.3.1-3.3.5-.5.2 1.7 1.6 4 3.1 5.2zM89 78.4c0 .2-.8 1-1.7 1.7-1.6 1.3-1.7 1.2-.4-.4 1.3-1.6 2.1-2.1 2.1-1.3zM283.5 86c-.9 1.7-2.1 2.8-2.7 2.4-.7-.4-.5-1 .5-1.6.9-.5 2-2.5 2.4-4.6.5-2.7.8-3.1 1.1-1.5.2 1.2-.4 3.6-1.3 5.3zM56.7 99.2c-.3.7-.5.2-.5-1.2s.2-1.9.5-1.3c.2.7.2 1.9 0 2.5z"/><path d="M221.4 70.5c-.3.8-.4 2-.2 2.7.3.7.7.1 1-1.5.6-2.9.1-3.6-.8-1.2zM112.5 75c.4.6 1.1.8 1.6.5 1.4-.9 1.1-1.5-.7-1.5-.8 0-1.2.5-.9 1zM182 94c0 .5.5 1 1.1 1 .5 0 .7-.5.4-1-.3-.6-.8-1-1.1-1-.2 0-.4.4-.4 1zM1 171c0 41.2.4 75 .8 75 1 0 3.6-2.8 4.6-5 2.3-5 5.6-10.3 5.6-9.1 0 1.1.4.9 1.5-.5.8-1 1.5-3.8 1.5-6 0-4.1 2.2-6.7 3.4-4.1.5.9.7.9 1.2-.1.9-1.9 2.7-1.4 2 .5-.5 1.5-.3 1.5 1.1-.2 1-1.1 2.9-2.5 4.3-3.2 2.2-1 2.3-1.2.5-1.3-2.8-.3 5.2-2.8 9.1-2.9 1.8-.1 4.2-1 5.5-2.1l2.4-1.9-4.4-.1c-3.5 0-4.2-.3-3.3-1.2.6-.6 1.7-1.3 2.4-1.4 4.6-1 9.5-3.6 11.7-6.3 1.4-1.7 4.2-3.9 6.1-4.9 1.9-.9 3.6-2.3 3.6-3 .1-.6.2-1.9.3-2.7 0-.8.8-1.5 1.6-1.5s2.1-1.6 2.9-3.5c.8-1.9 2.9-4.3 4.6-5.4 2.6-1.5 3.8-1.7 7.1-.8 2.7.6 4.7.6 6.2 0 1.5-.7 2.7-.7 3.9 0 1.2.8 2.4.8 4.2-.1 1.9-.8 2.6-2.1 3.2-5.8.9-6.3-.9-9.8-5.4-10.2-1.9-.2-3.2.1-3.2.8 0 .7-.7.6-2-.3-1.6-1.1-3.1-1.2-7.1-.4-4.6.9-5.2.8-7.5-1.4-1.4-1.3-3.2-3.6-4-5.1-.8-1.5-2.3-3-3.5-3.3-1.1-.4-1.8-1.2-1.6-1.8.9-2.4-1.2-5.5-4-6.1-1.8-.4-3.6-1.9-4.7-3.7-1.1-1.8-2.9-3.2-4.7-3.6-1.6-.3-3.1-1.4-3.4-2.4-.5-1.4-1.6-1.9-4.2-1.9-5.8 0-2.9-1.5 3.6-1.9 3.5-.2-4.2-4.1-9.2-4.7-3.5-.4-5.4-1.1-5.1-1.8.2-.6-.5-1.7-1.7-2.4-1.5-1-1.9-1-1.4-.1.5.8.4 1-.3.5-.7-.4-1.2-1.4-1.2-2.2 0-.9-.6-1.4-1.2-1.1-.7.2-2.1 0-3-.5-1.4-.7-1.6-.5-1.1.8.5 1.4.3 1.4-1.6.3-1.4-.9-2.1-2.4-2.1-4.4 0-1.6-.9-4.4-2-6-1.1-1.7-2-2.3-2-1.5 0 .8-1.3-1.1-2.9-4.2C5 98.5 3.2 96 1.9 96c-.5 0-.9 32.6-.9 75zm13.7-46.8c-.3.8-.6.5-.6-.6-.1-1.1.2-1.7.5-1.3.3.3.4 1.2.1 1.9zm6.8-1.2c.3.5.1 1-.4 1-.6 0-1.1-.5-1.1-1 0-.6.2-1 .4-1 .3 0 .8.4 1.1 1zm-6.8 95.2c-.3.8-.6.5-.6-.6-.1-1.1.2-1.7.5-1.3.3.3.4 1.2.1 1.9zM335.2 97.9c-1.2 1-2.2 2.5-2.2 3.2 0 2-4.9 9.7-5 7.9 0-1.3-.1-1.3-1 0-1.3 2-1.3 4.3 0 3.5.6-.3.7.1.3 1-.5 1.3-.7 1.4-1.4.3-.8-1.2-1.3-.4-1 1.4 0 .4-.4 1.9-.9 3.2-.6 1.7-1.4 2.4-2.5 2-.8-.3-1.2-1.1-.8-1.7.4-.6.1-.7-.6-.3-.7.5-1 1.1-.7 1.4.7.7-1.3 3.2-2.6 3.2-.6 0-.5-.7.2-1.5s.8-1.5.3-1.5c-1.3 0-5.3 4.3-5.3 5.7 0 .5-2.5 1.3-5.6 1.6-3 .3-6.8 1.4-8.2 2.3l-2.7 1.8 3.8.7c5.2.8 5.4 1.5.8 2.3-2.1.3-4.1 1.2-4.4 2-.3.7-1.9 1.6-3.5 1.9-2.1.4-3.1 1.4-3.6 3.1-.5 1.9-1.7 2.8-4.7 3.7-3.7 1.2-6.8 4.3-5.5 5.6.3.3-.7 2.1-2.2 3.8-1.5 1.8-3.7 4.6-4.9 6.1-2.2 2.9-2.3 2.9-13.4 2.9h-11.3l-.8 3c-.5 1.6-.6 5.1-.2 7.8.5 3.9 1 4.8 2.9 5.3 2.9.7 4.8-.3 4.1-2.2-.8-2 .8-1.7 2.9.6 1.6 1.8 2.6 1.9 7.9 1.4l6.1-.6 2.5 3.9c1.4 2.1 3.4 4.6 4.5 5.6 1.1 1.1 1.9 2.5 1.7 3.2-.3 1.4 4.3 5.5 6.2 5.5 1.5 0 4.2 3.2 5.1 5.9.4 1.3 1.5 2.1 2.8 2.1 1.2 0 3.1.7 4.1 1.5 1.1.8 3 1.5 4.3 1.5 1.4 0 2.1.5 1.7 1.3-.3.9-1.6 1.2-3.4.9-1.7-.2-3 0-3 .6 0 1.6 1.4 2.2 8.2 3.3 6.9 1.1 8.6 1.8 6.8 2.9-.8.5-.5.9.9 1.3 1.4.3 1.9.1 1.5-.6-.3-.7.1-.4.9.5.8 1 2.3 1.9 3.3 2.1 1 .1 2.4.6 3.1 1 .6.4 1.4.1 1.6-.5.3-.7.6-.3.6 1 .1 1.3.5 2.1.9 1.8.4-.2.9.5.9 1.7.3 3.9 1.3 6.7 2.4 6.7.6 0 .6-.6-.1-1.9-.5-1.1-1-2.3-1-2.8.1-.4.7.3 1.5 1.7 1 1.8 1 2.8.2 3.8s-.7 1.2.3 1c.7-.2 2.5 2.1 4 5.1 1.5 2.9 3.4 5.8 4.3 6.3 1.6.8 1.7-4.5 1.7-74.2 0-41.2-.2-75-.3-75-.2 0-1.4.8-2.5 1.9zM143 98.4c0 .2.6.9 1.3 1.5 1 .8 1.4.7 1.4-.4 0-.8-.6-1.5-1.4-1.5-.7 0-1.3.2-1.3.4zM194 99.6c0 .8.5 1.2 1 .9.6-.3 1-1 1-1.6 0-.5-.4-.9-1-.9-.5 0-1 .7-1 1.6zM126.5 99.9c-.3.6.1 1.4 1 1.8 1.2.7 1.3 1.2.3 2.6-.9 1.2-2.9 1.8-6.3 1.9-2.7.1-6.7 1-8.7 2-4.5 2.2-7.2 2.3-12.7.3l-4.2-1.5.3 2.8c.3 2.3.8 2.7 3.7 2.9 3.5.1 5.1 1.5 5.1 4.5 0 1.5 1 1.8 6.3 2 3.4.1 7.2.1 8.4 0 1.3 0 2.2.5 2 1.1-.1.8 2.5 1.4 7.9 1.8 4.5.3 8.6.9 9.3 1.3.6.4 2.5 1.1 4.1 1.6 2.8.8 2.9.8 1.7-1.8-.6-1.5-1.4-3.1-1.9-3.7-1.1-1.3-1-5.3.2-6 .6-.3 1-1 1-1.6 0-1.6-6.3-4.9-9.5-4.9-4 0-6-1.4-5.1-3.5.7-1.8-1.9-5.1-2.9-3.6zM212 99.9c0 .6-.6 1.1-1.4 1.1-1 0-1.4.9-1.3 2.7.2 2.6-.1 2.8-5.2 3.5-7.3 1.1-8.3 2.1-7.6 7.2.4 2.3.2 5.4-.5 7-.6 1.6-.9 3.1-.6 3.3.2.3 2.1-.1 4.3-.7 5.1-1.6 14.3-2.8 13.7-1.8-.3.4 0 .8.5.8.6 0 1.1-.4 1.1-.9s1.2-.7 2.8-.5c2.6.5 2.6.5.7-1-1.8-1.4-1.3-1.5 6.7-1.6h8.6l.7-3c.7-3 1.3-3.4 4.8-3 2.4.2 4.7-1.8 4.7-4.2 0-1.5-.4-1.8-1.7-1.3-1 .3-4 1.1-6.6 1.8-4.2.9-5.2.8-8-.8-1.8-1.1-5.3-1.9-8.4-2-3.6-.2-6-.8-7.4-2l-2-1.9 2.2-1.2c1.4-.7 1.8-1.4 1-1.8-.6-.4-1.1-.2-1.1.3zM106 124.1c0 .5.1.9.3.9.1.1 3.1.4 6.6.7 5.1.4 6.2.3 5.6-.7-.6-1-.2-1.2 1.3-.8 1.2.4 2.4.2 2.7-.2.3-.5-3.3-.8-8-.8s-8.5.4-8.5.9zM219.5 124c-.9 1.4 2 2.3 4.9 1.6 1.4-.3 2.8-.2 3.1.4.3.5 1.1 1 1.6 1 .6 0 .7-.5.4-1-.4-.6.5-1 1.9-1s2.6-.5 2.6-1c0-1.3-13.7-1.3-14.5 0zM127.7 126.7c-.4.6-1.7.9-2.8.6-1.6-.4-2-.2-1.7.8.3.8 1.1 1.5 1.9 1.6 2 .4 4.2-1.3 3.7-2.8-.3-.9-.6-1-1.1-.2zM209.6 127.4c.7 1.8 4.4 2.8 4.4 1.3 0-.9.2-.9.8 0 .5.7 1.3.9 2.1.4 1.1-.7.9-1-.8-1.6-1.1-.3-2.5-.4-3 0-.5.3-1.2.1-1.6-.5-.9-1.5-2.5-1.2-1.9.4zM88.3 127.7c.9.2 2.3.2 3 0 .6-.3-.1-.5-1.8-.5-1.6 0-2.2.2-1.2.5zM248.3 127.7c.9.2 2.3.2 3 0 .6-.3-.1-.5-1.8-.5-1.6 0-2.2.2-1.2.5zM197 129.5c-.7.8-.9 1.5-.6 1.5.4 0 1.4-.7 2.2-1.5.9-.8 1.1-1.5.6-1.5-.5 0-1.5.7-2.2 1.5zM141.7 130.1c.7.7 1.5 1 1.8.7.3-.3-.2-.9-1.2-1.2-1.4-.6-1.5-.5-.6.5z"/><path d="M61.8 130.8c-4.1.3-5 1.6-1.8 2.5 1.1.3 2 0 2-.5 0-.6.8-.4 1.7.3 1.1 1 1.4 1 .9.1-.4-.6-.2-1.2.4-1.2 1.7 0 2.2 2.4 1.1 5.4-1 2.6-1.2 2.6-4 1.1-4.2-2.1-9.2-2-8.8.2.5 3.1 1.6 4 5.7 4.7 2.3.4 3.8 1.1 3.5 1.6-.4.6.1 1.3.9 1.6.9.3 1.3 1 1.1 1.5-.7 1.1 4 2.3 5.9 1.6.8-.3 3 .5 4.8 1.8 6.7 5 10.3 7 12 6.7 1-.2 1.8.3 1.8 1 0 1.1.2 1.1.9 0 .8-1.3-1.6-10.2-3-11.2-.4-.3-1.1-2.3-1.5-4.5-.5-2.2-.9-4.3-1-4.8-.1-.4-.2-1.1-.3-1.6 0-.6-1-.8-2.1-.6-1.1.2-1.8 0-1.5-.4.7-1.3-4.3-2.3-7.6-1.6-2.1.5-2.9.3-2.9-.7 0-1.9-3.9-3.3-8.2-3zM72.1 131.1c1.8 1.1 8.6 1.2 9.3 0 .3-.4-2-.8-5.1-.9-3.6 0-5.1.3-4.2.9zM257.3 130.6c.3.3 3.1.7 6.3 1 3.2.3 5.5.1 5-.3-.4-.4-3.2-.9-6.3-1-3.1-.1-5.3 0-5 .3z"/><path d="M270.4 131.7c-.4 1-.6 2.4-.5 3.1.2 1-.2 1-1.7.1-2.4-1.5-10.4-.3-8.1 1.2 1 .8.8.9-1.1.7-2.9-.3-5.3.9-4.5 2.2.3.5-.5 4-1.9 7.9-1.3 3.8-2.2 7.2-1.8 7.5.3.3 0 .6-.6.6-.7 0-1.2.9-1.2 2 0 4.2 11.6-.6 16.6-7 1-1.2 1.4-1.2 2.8-.1 1.3 1.1 2.1 1 4.8-.6 3.6-2.1 5.3-5.8 2.1-4.6-1 .3-1.5.3-1.1-.2.4-.4 2.7-1 5-1.2 4.2-.5 9.9-3.3 6.8-3.3-1.3 0-1.3-.1 0-1 2.9-1.8-2.2-2.4-6.7-.8-3.8 1.4-4.6 1.4-5.8.1-1.6-1.6-1.9-3.2-.9-5.8.6-1.4.9-1.4 2.8-.2 1.6 1.1 2.8 1.2 4.6.4 2.4-1 2.4-1-1.5-1.8-6-1.2-7.2-1.1-8.1.8zm2.3 13.8c0 .8-.4 1.5-.9 1.5-1 0-1.1-1.4-.1-2.3.9-1 1-.9 1 .8zM283.8 132.7c.6.2 1.8.2 2.5 0 .6-.3.1-.5-1.3-.5-1.4 0-1.9.2-1.2.5zM118.8 133.7c.6.2 1.8.2 2.5 0 .6-.3.1-.5-1.3-.5-1.4 0-1.9.2-1.2.5zM123.5 138c-.3.6.1.7.9.4 1.8-.7 2.1-1.4.7-1.4-.6 0-1.3.4-1.6 1zM105.5 148.7c.4 6 .2 13.5-.3 16.8-.7 4.1-.7 8.4.1 13.7.7 5.2.8 10.2.1 15.8-1.1 9.3-2.2 8.7 9.6 5.5 3.6-1 7.7-2.8 9.3-4.1 1.5-1.3 3.4-2.1 4.2-1.8.9.4 1.5 0 1.5-1 0-1.6.8-1.8 6.5-2 4-.1 4.8-2 1-2.4-3.4-.4-6.1-2.5-7.1-5.4-.3-1-2.8-3.9-5.5-6.5-2.7-2.5-4.9-5.3-4.9-6.2 0-1.5 5.8-7.6 9.1-9.7.8-.5 1.9-2.2 2.4-3.9 1.2-3.5 5.3-5.9 7.2-4.3.9.7 1.3.7 1.3-.1 0-.6-.6-1.1-1.2-1.2-.7 0-.4-.4.7-.9 1.3-.6.5-.7-2.5-.4-3.2.4-5.1.1-6.5-1-1.7-1.3-1.8-1.7-.5-2.6.8-.5 1-1 .5-1-.6 0-1.6.5-2.3 1.2-.9.9-1.7.7-3.6-1.1-1.3-1.2-4.5-2.8-7.2-3.6-2.7-.7-6.6-2-8.7-2.9l-3.8-1.7.6 10.8zM118.8 138.7c.6.2 1.8.2 2.5 0 .6-.3.1-.5-1.3-.5-1.4 0-1.9.2-1.2.5zM218.8 138.7c.7.3 1.6.2 1.9-.1.4-.3-.2-.6-1.3-.5-1.1 0-1.4.3-.6.6zM228 140.6c-1.4.7-3.2 1.4-4.1 1.4-2.7 0-9 3-9.5 4.5-.4.8-1 1.2-1.5.9-.5-.3-.9-.2-.9.3 0 1.4-5.6 3.4-8.9 3.1-3.4-.2-3.7-.7-1.8-2.8 1-1.2.9-1.2-.5-.1-1.8 1.3-2.1 5.2-.3 4.9 1.3-.3 7.5 2.2 7.6 3.1.4 3.6 1.2 5.7 2.2 6 .6.2 3.2 2.3 5.6 4.7l4.5 4.2-3.4 4c-1.9 2.2-4.5 4.4-5.7 5.1-1.5.7-2.3 2-2.3 3.5 0 3-4.5 6.5-7.7 6-1.3-.2-2.3.1-2.3.7 0 .5.5.7 1 .4.6-.3 1 .2 1 1.2 0 1.4.2 1.5.9.4 1.1-1.7 6.7-.6 7.5 1.5.3.8 1.4 1.4 2.5 1.4s2.6.9 3.4 2c.8 1.2 3.3 2.4 6.3 3 2.7.5 6.4 1.4 8.2 1.9 1.7.5 3.2.7 3.2.3 0-.4.5 0 1 .8.7 1 .8.4.3-2-.4-1.9-.7-7.3-.6-12 .1-8.3.1-19.2 0-35.5-.1-4.4.2-9.5.6-11.3.6-2.9.4-3.2-1.6-3.1-1.2.1-3.3.7-4.7 1.5zM133.5 146c-.4.6.7.9 2.8.8 1.9-.2 3.3-.6 3-1.1-.6-1.1-5.1-.9-5.8.3z"/><path d="M203 146.5c.7.9 1.6 1.2 1.9.7.3-.5 1.3-1.2 2.1-1.5.8-.3 0-.6-1.9-.6-2.9-.1-3.2.1-2.1 1.4zM143.2 148.9c.4 1.3 1.8 1.6 1.9.4 0-.4-.5-.9-1.1-1.2-.7-.2-1.1.2-.8.8zM194.6 149.5c-.3.8-.1 1.5.4 1.5.6 0 1-.7 1-1.5s-.2-1.5-.4-1.5-.6.7-1 1.5zM65.8 153.7c.7.3 1.6.2 1.9-.1.4-.3-.2-.6-1.3-.5-1.1 0-1.4.3-.6.6zM267.3 155.2c-5.1 2.6-6.6 5-2.3 3.8 1.6-.4 3.1-.6 3.4-.3.6.6 4.5-3.7 4.6-5 0-1.1-1.2-.8-5.7 1.5zM68.5 155.1c-.4.5.1 1.9 1.1 3 1.3 1.5 1.9 1.6 2.6.7.5-.8.8-.9.8-.2s1.1.9 2.6.6c2.5-.4 2.4-.5-1.6-2.8-4.9-2.8-4.7-2.7-5.5-1.3zM132.9 159.2c-1.2 2.3-1.2 2.3 1 .4 2.3-2.1 2.6-2.6 1.1-2.6-.5 0-1.5 1-2.1 2.2zM205 159c.6 1.1 1.5 1.8 2.1 1.5.5-.4.3-1.2-.5-2.1-2.1-2-2.8-1.7-1.6.6zM127 170.9c0 1.1 3 1.9 4.8 1.4 2.3-.8 1.2-2.3-1.8-2.3-1.6 0-3 .4-3 .9zM207 171c0 1 2.4 1.5 4.5 1 .6-.1 1.5-.3 2.2-.3.7 0 1-.4.7-.9-.7-1.2-7.4-1-7.4.2zM72.1 182.8c-1.8.6-6.5 5.2-5.9 5.7.8.8 7.7-1.8 7.2-2.7-.3-.4.2-.8 1-.8s1.7-.4 2-.9c.7-1.1-2.3-2-4.3-1.3zM133 183.5c.7.9 1.5 1.3 1.7 1.1.7-.7-.7-2.6-1.9-2.6-.6 0-.6.6.2 1.5zM204.6 183.6c-.4 1-.1 1.4.6 1.2 1.5-.5 2.3-2.8 1-2.8-.5 0-1.3.7-1.6 1.6zM263.2 182.8l-3.2.3 5.2 2.9c5.9 3.1 7.2 3 5.6-.5-1.2-2.6-2.7-3.2-7.6-2.7zM84.5 184c-1.5 2.5-12.1 8.5-15.2 8.6-3.3.1-8.3 3.6-8.3 5.8 0 .6.5.5 1.2-.2s2-1.2 2.9-1.2c1 0 1.9-.6 2.2-1.3.2-.6.8-.9 1.2-.5 1.1 1.1-1.5 3.9-3.4 3.7-.9-.1-1.8 0-2.1.1-.3.1-2.3.4-4.4.6-4 .3-5.8 1.8-5.3 4.4.4 2.7 3.3 2.4 11.4-1.2.4-.2 1 .9 1.4 2.5.8 3.1-1.3 6-4 5.3-.9-.2-3.4-.7-5.6-1-3.4-.5-3.6-.4-1.5.5 1.4.6 4 1.2 5.9 1.5 1.8.2 3.7.6 4.1.9.9.6 5-2.8 5-4.2 0-.5 1.6-.7 3.6-.5 2 .3 4.6 0 5.7-.6 1.2-.6 2.9-1.2 3.7-1.4.8-.3 1.5-1.9 1.7-4.2.1-2.1 1-5 2-6.4 2.7-4 3.2-5.6 2.1-6.9-.6-.7-.5-1.9.2-3.2.9-1.9.8-2.1-1.4-2.1-1.4 0-2.8.4-3.1 1zM249 184c0 .5.3 1 .8 1 .4 0 .8 1.6.9 3.6.1 2.2 1.1 4.6 2.4 6 2.2 2.4 2.2 2.4.3 3.8-1 .8-1.6 1.8-1.1 2.2.4.4.7.2.7-.4 0-.7.5-1.2 1-1.2.6 0 1 1.1 1 2.5s-.5 2.5-1.2 2.5c-2.3 0 .2 1.3 3.3 1.6 1.8.2 3.8.9 4.5 1.5.7.6 2.9.8 4.8.5 2.8-.5 3.6-.2 3.6.9 0 .8.7 1.5 1.5 1.5 1.8 0 2 1.6.3 2.3-1 .4-1 .6-.1.6 1.8.1 2.6-1.8 1.3-3.3-1.2-1.5-.4-6.2 1.2-7.2.5-.3 1.7.1 2.6.9 2.1 1.8 7.3 3 8.8 1.9 2.5-1.7 1.1-4.2-2.8-4.8-2.1-.4-3.8-1.1-3.8-1.7 0-.5-.7-.4-1.5.3-.9.7-1.8 1-2.2.6-.3-.3-.1-.6.5-.6 2.4 0 1.2-4-1.8-5.5-3.3-1.7-6-2-6-.5 0 1.8-1.7 1-3-1.5-.7-1.4-1.9-2.5-2.5-2.5-.7 0-2.9-1.4-5-3-3.7-2.9-8.5-4-8.5-2zm25.8 13.2c-.2.5-.8.9-1.3.9s-1.1-.4-1.3-.9c-.1-.5.4-.9 1.3-.9s1.4.4 1.3.9zM195.5 192.1c-1.1 1.6-.1 1.9 1.3.3.7-.8.8-1.4.3-1.4s-1.3.5-1.6 1.1zM143.1 192.9c-.7.5-.9 1.1-.5 1.4.5.3 1.5-.1 2.2-.9 1.4-1.6.5-1.8-1.7-.5zM133 196.3c0 .7 1.3 1.4 3 1.5 3.2.2 4.1-1.2 1.4-2.2-2.5-1-4.4-.7-4.4.7zM202.5 196c-.4.6-1.2.7-1.8.4-.9-.5-.9-.4-.1.5 1.4 1.5 4.6 1.1 5.2-.7.4-1.4-2.4-1.6-3.3-.2zM119.9 204.1c-1 .6-.4.9 1.9.9 1.7 0 3.2-.2 3.2-.4 0-.9-3.9-1.3-5.1-.5zM215.5 204c-1.5.7-.9.9 2.5.9 3.3.1 4.1-.2 3-.9-1.8-1.2-2.8-1.2-5.5 0zM112.5 209c-.2.3.9.7 2.5.8 1.6.1 3.1-.2 3.4-.6.3-.5-.8-.9-2.5-.8-1.7.1-3.2.3-3.4.6zM219.7 209.2c.6 1.1 5.5 1 7.1-.1.8-.5-.4-.8-3.1-.7-2.5.1-4.3.4-4 .8z"/><path d="M276.1 210.1c1 .6 1.1.9.2.9-.7 0-1.3.4-1.3.9s1.7.5 4.2 0c6.7-1.6 7-2.4 1.1-2.5-3.5-.1-5 .2-4.2.7zM141.9 212.7c-1.3 1.7-1.3 1.7.6.3 1.1-.8 2.2-1.6 2.4-1.7.2-.2 0-.3-.6-.3s-1.7.8-2.4 1.7zM264 212c-3.4.7-3.4.7 1.3.9 3 0 4.6-.3 4.2-.9-.3-.6-.9-.9-1.3-.9-.4.1-2.3.5-4.2.9zM73.3 212.7c1.5.2 3.9.2 5.5 0 1.5-.2.2-.4-2.8-.4s-4.3.2-2.7.4zM125.7 213.8c.6 1.4.4 1.5-.9.4-1.1-.9-1.8-1-2.3-.2-.3.5 0 1.1.7 1.1 6.4.6 8 .6 6.6.2-1-.2-1.8-.8-1.8-1.3 0-.4-.7-1-1.4-1.3-1.1-.4-1.3-.1-.9 1.1zM211.5 214c.3.5-.1 1.1-.7 1.4-2.3.9 3.6-.2 6.2-1.2 2.2-.9 2.1-1-1.7-1-2.4 0-4.1.4-3.8.8zM87.3 214.7c.9.2 2.5.2 3.5 0 .9-.3.1-.5-1.8-.5-1.9 0-2.7.2-1.7.5zM247 215.2c0 1 1.9.9 4.5-.2 1.6-.7 1.4-.9-1.2-.7-1.8.1-3.3.5-3.3.9zM110.4 215.7c.4.8-.5 1.6-2.6 2.2-3.1.9-3 .9 2.2 1.1 3 .1 7 .3 8.8.6 2 .2 3.2 0 3.2-.8 0-.6-.3-.9-.6-.5-.4.3-1.3-.1-2.2-.9-1-1-2.5-1.4-4.2-1-1.5.2-3.3 0-4-.7-1-.9-1.1-.9-.6 0zM225.6 216.1c.4.7 0 .9-1.3.5-1.1-.4-3.2 0-4.7.8-2.5 1.3-2.1 1.4 6.1 1.4 4.8 0 7.9-.2 6.8-.5-1.1-.3-2.4-.8-3-1.3-1.9-1.4-4.6-2-3.9-.9zM140.5 218.5c-2.2.8-6.5 1.4-9.5 1.4-3 .1-6.8.8-8.4 1.6-1.8 1-5.7 1.6-10.2 1.6h-7.2l-.9 3.2c-.7 2.6-1.5 3.3-4.3 3.7-2.9.4-3.6 1-3.8 3.2l-.3 2.6 3.8-1.9c4.9-2.5 10.5-2.5 12.8.1 1.4 1.6 3.1 2 7.5 2 3.1 0 6.1.5 6.8 1.2.8.8 1.5.8 2.4.1.7-.6 3.2-1.3 5.4-1.6 2.3-.2 5.3-1.5 6.6-2.7 2.3-1.9 2.5-2.5 1.5-5.5-.8-2.8-.6-3.9 1.1-6.9 2.3-4 2.4-3.9-3.3-2.1z"/><path d="M44.4 219.4c-2.3.8-5.1 1.9-6.3 2.5-1.4.8-3.2.9-5.5.3-2.9-.8-3.8-.6-6.7 1.6-1.9 1.5-3.6 3-3.8 3.5-.1.4-3 3.6-6.2 7s-6.2 7-6.5 8.2c-.8 2.5-3.4 5.1-6.2 5.9l-2.2.7V338h337v-88.9l-2.2-.7c-2.8-.8-4.8-2.8-4.8-4.7 0-.7-1.1-2.4-2.5-3.7-1.4-1.3-2.5-2.7-2.5-3.1 0-.4-3.4-4.1-7.6-8.3-5.3-5.3-8.3-7.6-10-7.6-1.3 0-2.4.4-2.4 1 0 1.2-3.2 1.3-4.6.1-.5-.4-3.1-1.6-5.8-2.5-5.1-1.6-14.7-1.7-37.3 0-10.2.7-10.3.7-10.3 3.3 0 4.8 2 14.6 3 14.9.5.2 1 1 1 1.8 0 1.2.5 1.5 2.6 1.4.3-.1 1.3.9 2.2 2.1 1.6 1.9 2.4 2 7.4 1.4 4.6-.6 5.8-1.1 6.7-3.2.7-1.5 1.6-2.1 2.4-1.6.6.4 3 1 5.2 1.3 4.5.6 5 2.2.8 2.6-5 .5-7.7 1.5-8.9 3.2-.7.9-1.7 1.8-2.3 1.8-2.4.3-2.5.5-1.1 1.4 1.2.7 1 1.1-1 1.9-1.4.5-2 1-1.3 1 2 .1 5.3 4.4 4.8 6.1-.5 1.7.5 4.3 3.8 9.1 1 1.5 1.5 3.4 1.1 4.3-.5 1.2-.9 1.4-1.4.6-.5-.8-.9-.4-1.3.9-.3 1.2-.2 1.9.3 1.6.4-.2.7 1.3.6 3.5 0 2.2-.6 4.2-1.3 4.5-.7.2-1.3-.2-1.3-.9 0-1.1-8-11.8-12-15.9-.4-.5-1.8.2-3 1.5l-2.2 2.3 1.3-2.8c.7-1.5 1.6-2.7 2-2.7 1.2 0-.9-7.2-2.9-9.9-1-1.4-2.9-3.1-4-3.7-1.2-.6-3.1-1.9-4.1-2.8-2.9-2.7-5.5-1.7-6.1 2.3-.4 2.8-.7 3.2-1.7 2-.6-.8-1.6-2.7-2.2-4.2-1.2-3-2.7-3.3-5.5-1.2-1.7 1.3-1.7 1.8-.6 6.6.8 3.2.9 5.4.3 5.8-1.6 1.1-2.2 3.8-1 5 .6.6 1.4 3.2 1.7 5.9l.5 4.7 4-.3c5.6-.5 9.4-2.7 10.1-6 1.3-5.8 1.7-6.8 4.2-9.5 1.4-1.5 3.3-2.7 4.1-2.7 1.3.1 1.2.4-.3 1.5-1.1.8-1.6 1.5-1.1 1.5s-.1.7-1.3 1.6c-1.2.8-2.2 2.5-2.2 3.7.1 2.2.1 2.2 1.7.2l1.6-2-.8 2c-.4 1.1-.7 3.1-.6 4.5.1 1.9-.1 2.2-.9 1-.5-.8-1-1.2-1.2-1-2.4 3.7-2.6 4.8-1.2 5.4 2.4.9 1 2.1-5 4.1-4.8 1.7-5.9 1.7-9.5.5-2.3-.7-4.1-1.7-4.1-2.2 0-.5-.5-.6-1-.3-.6.3-2.4-.3-4-1.5-3.7-2.6-3.9-6-1-15 1.1-3.4 2-6.9 2-7.6 0-2-1.7-2.6-3.2-1.2-.7.7-2.2 1.5-3.3 1.6-2.6.5-3.5 2-3.5 5.8 0 1.7-.6 3.7-1.3 4.3-1.6 1.3-2.8.5-2-1.5.7-1.8-2.3-6.4-4.2-6.4-1.6 0-1.6.1-2 4-.1 1.3-.8 2.6-1.4 2.8-.6.2-1.1 1.7-1.1 3.3 0 1.6-.4 2.9-.9 2.9s-1.4 1.4-2.1 3.1c-.8 1.9-1.6 2.6-2 1.9-.6-.9-.9-.9-1.3.1s-.6.9-.6-.3c-.1-.9.6-2.4 1.5-3.2 1.3-1.4 6.4-12.5 6.4-14.1 0-.3-.9-.5-2-.5-2.1 0-2.9-2-.7-2 .6-.1-.6-.7-2.8-1.5-4.6-1.7-9.5-1.9-9.5-.5 0 .5-.7 1-1.6 1-.9 0-1.2-.5-.8-1.2.5-.7.3-.8-.6-.3-1 .6-.9 1.1.4 2.1 1.6 1.2 1.6 1.2-.1 1.6-2.5.6-6.2-.8-8.2-3.1-1.9-2.2-8.6-3.7-9.6-2.1-.3.6-1.1.8-1.6.4-.5-.3-2.3.6-4 2-3.8 3.2-8.5 3.5-9.4.6-.8-2.4-5.6-2.7-10.4-.7-2.4 1-2.8 1.6-1.9 2.5.9.9.7 1.2-1 1.2-1.2 0-2.2.1-2.2.3 0 .1.9 2.8 2 6 1.1 3.1 2 6.3 2 7.1 0 .9.9 2 2.1 2.6 2.5 1.4 1.9 2.4-.9 1.6-1.4-.5-2.4-2.2-3.2-5.6-.6-2.7-1.8-5.1-2.5-5.4-.7-.2-1.6-1.8-2-3.5-.8-3.6-1.2-3.7-3.7-1.4-1 .9-1.8 1.1-1.8.5 0-.6.6-1.3 1.3-1.5.6-.3.3-.6-.8-.6-1.5-.1-2 .6-2.1 2.4-.1 1.4.1 2.3.6 2 .4-.2.5.7.2 2.2-.4 2.3-.6 2.4-1.5.7-.6-1-1.1-3.4-1.2-5.2-.1-3.1-.5-3.6-4.8-5.2l-4.7-1.8v3.5c0 2 1 6.4 2.1 9.8l2.2 6.2-2.6 3.5c-1.5 1.9-3.6 3.4-4.9 3.5-1.2.1-2.4.7-2.6 1.2-.2.6-1.9 1.3-3.7 1.7-3.6.6-15.4-2.8-16.7-4.9-.5-.7-.5-3.2-.1-5.7.9-6.2.7-7.9-1.3-10.1-2.5-2.8-4.1-2.3-4.7 1.5-.3 1.9-1.4 4.5-2.5 5.8-1.1 1.2-3.8 4.5-6.1 7.1-2.2 2.6-4.4 5.9-4.7 7.2-.9 3.5-3.4 2-3.4-2.1 0-1.8-.5-4.4-1.2-5.8-.9-2.1-.8-3.3.7-6.5.9-2.2 2.4-4.2 3.2-4.6 1-.3 1.4-1.4 1-3.2-.3-1.9.2-3.3 1.9-5 2.8-2.8 3-3.5.9-2.7-2 .8-1.9-.6.3-2.2 1.6-1.3 1.6-1.4-.1-.8-1.1.4-2.6-.1-4-1.4-2.3-2.2-10.4-4.5-12-3.5-.5.3-.8 0-.5-.8.7-2.3 8.9-2.8 11.3-.7 1.1.9 4.5 2 7.5 2.4 5.4.6 5.6.5 9.7-3.6 3.5-3.5 4.3-5 4.8-9.4.4-2.8.5-6.5.3-8.1-.3-3-.4-3-7.8-3.6-19.4-1.7-34.5-1.8-38.6-.5zm238.4 36.7c-.3.8-.7.3-1.1-1-.4-1.7-.3-2.1.5-1.3.5.5.8 1.6.6 2.3zM59 255c0 .5-.6 1.3-1.4 1.7-.8.4-1.9 2.4-2.4 4.3l-1 3.5-.1-3c-.1-1.7.6-4.1 1.5-5.3 1.6-2.3 3.4-2.9 3.4-1.2zm225.7 6.7c-.3 1-.5.4-.5-1.2 0-1.7.2-2.4.5-1.8.2.7.2 2.1 0 3zM88 261.5c.7.9.8 1.5.2 1.5-.5 0-1.2-.7-1.6-1.5-.3-.8-.4-1.5-.2-1.5s.9.7 1.6 1.5zm62.3 1.6c2.2 3.9 2.2 4.9-.3 4.9-1.1 0-2-.4-2-.9s-.3-2.3-.6-4c-.8-4 .6-4 2.9 0zm41.7-.2c-.4 1.5-.5 4.1-.2 5.7l.5 2.9-2.5-2.4c-2.5-2.4-2.5-2.6-1-5.8 2-4.2 4.4-4.5 3.2-.4zm-31.4 3.9c-.9.9-3.7-.8-3.1-1.8.5-.8 1.1-.7 2.1.1.8.6 1.2 1.4 1 1.7zM183 265c0 1.2-2.8 2.5-3.6 1.7-.9-.9.6-2.7 2.2-2.7.8 0 1.4.5 1.4 1zm67.3 9.7c-.3.7-.9 1-1.4.7-1.4-.8-1.1-2.1.5-2.1.8 0 1.2.6.9 1.4z"/><path d="M195.6 219.6c.4 1 .9 4.3.9 7.3 0 4.8.3 5.5 2.5 6.5 1.4.6 2.7 1.4 3 1.7.3.4 2.1.9 4 1.1 3.1.3 3.5.6 3.5 3.3 0 2.4.5 3.1 2.5 3.4 2.4.3 2.4.3.7-1.7-2.9-3.1 0-5.2 7.2-5.2 4.6 0 6.2-.4 7.7-2.1 1.6-1.8 2.7-2 6.6-1.6 2.6.3 5.9 1.4 7.3 2.3l2.7 1.7-.4-2.9c-.3-2.6-.8-3-4.3-3.4-3.4-.4-4.1-.9-4.8-3.7-.9-3.2-1-3.2-7.9-3.2-7.4 0-11.1-.7-10.3-2 .2-.5-3.2-1.1-7.8-1.4-4.5-.3-9.5-.9-11.1-1.3-2.6-.6-2.8-.5-2 1.2zM317.5 223c.3.5.8 1 1.1 1 .2 0 .4-.5.4-1 0-.6-.5-1-1.1-1-.5 0-.7.4-.4 1zM127 241c-.6 1.1-.7 2-.2 2 1 0 3.2-2.1 3.2-3.2 0-1.6-1.9-.8-3 1.2zM144 242.9c0 .6.5 1.3 1 1.6.6.3 1-.1 1-.9 0-.9-.4-1.6-1-1.6-.5 0-1 .4-1 .9zM194 242.9c0 .6.4 1.3 1 1.6.6.3.7-.1.4-.9-.7-1.8-1.4-2.1-1.4-.7zM105.4 246.8c-.5.4-1.6 2.2-2.3 3.9-1.8 4.3-3.2 4.2-2.7-.2.4-2.9.1-3.5-1.5-3.5-2.9 0-13.9 7.5-13.9 9.5 0 .3.7.5 1.6.5 2 0 7.4 5.9 7.4 8.2 0 2.5 3.2 8.8 4.4 8.9.6 0 3.2.4 5.9.8l4.7.8v-3.8c0-2.1.5-4.1 1-4.4.6-.4.8-1.6.4-2.7-.4-1.4-.2-1.8.5-1.4 1.6 1 1.4-.1-.5-3-1.5-2.3-1.5-2.8-.1-6.5 1.5-3.8 1.5-4-.6-5.9-2.3-2.2-2.7-2.3-4.3-1.2zM156 248c-.8.5-1 1-.5 1 .6 0 1.7-.5 2.5-1s1.1-1 .5-1c-.5 0-1.7.5-2.5 1zM181 247.4c0 .2.7.7 1.6 1 .8.3 1.2.2.9-.4-.6-1-2.5-1.4-2.5-.6zM153 252c0 .5.7.7 1.5.4.8-.4 1.5-.8 1.5-1 0-.2-.7-.4-1.5-.4s-1.5.4-1.5 1zM210.6 257.9c2.1 2.1 2.9 1.9 2.1-.4-.4-.8-1.4-1.5-2.3-1.5-1.6 0-1.6.2.2 1.9zM112.6 267.5c-.3.8-.1 1.5.4 1.5.6 0 1-.7 1-1.5s-.2-1.5-.4-1.5-.6.7-1 1.5zM225.7 268.1c.4 1.3.8 1.8 1.1 1 .2-.7-.1-1.8-.6-2.3-.8-.8-.9-.4-.5 1.3zM90.6 270.8c-.9 1.5.2 5.2 1.5 5.2 1.1 0 1.1-1.7 0-4.4-.5-1.4-1-1.6-1.5-.8zM66.7 273.7c.3.7.9 1 1.4.7 1.4-.8 1.1-2.1-.5-2.1-.8 0-1.2.6-.9 1.4z"/></svg>